<mxfile host="app.diagrams.net" modified="2023-06-09T07:31:35.340Z" agent="Mozilla/5.0 (Windows NT 10.0; Win64; x64) AppleWebKit/537.36 (KHTML, like Gecko) Chrome/113.0.0.0 Safari/537.36" etag="F4HKleBD1fAcJLeP5IMm" version="21.3.7" type="device">
  <diagram name="Page-1" id="2YBvvXClWsGukQMizWep">
    <mxGraphModel dx="802" dy="929" grid="1" gridSize="10" guides="1" tooltips="1" connect="1" arrows="1" fold="1" page="1" pageScale="1" pageWidth="850" pageHeight="1100" math="0" shadow="0">
      <root>
        <mxCell id="0" />
        <mxCell id="1" parent="0" />
        <mxCell id="eEOEgGMzsaSdzG_T69ij-72" value="" style="endArrow=none;dashed=1;html=1;rounded=0;fontSize=12;startSize=8;endSize=8;curved=1;" edge="1" parent="1">
          <mxGeometry width="50" height="50" relative="1" as="geometry">
            <mxPoint x="929.4399999999999" y="1150" as="sourcePoint" />
            <mxPoint x="929.4399999999999" y="1090" as="targetPoint" />
          </mxGeometry>
        </mxCell>
        <mxCell id="eEOEgGMzsaSdzG_T69ij-52" value="" style="endArrow=none;dashed=1;html=1;rounded=0;fontSize=12;startSize=8;endSize=8;curved=1;" edge="1" parent="1">
          <mxGeometry width="50" height="50" relative="1" as="geometry">
            <mxPoint x="569.77" y="1070" as="sourcePoint" />
            <mxPoint x="569.77" y="1010" as="targetPoint" />
          </mxGeometry>
        </mxCell>
        <mxCell id="eEOEgGMzsaSdzG_T69ij-53" value="" style="endArrow=none;dashed=1;html=1;rounded=0;fontSize=12;startSize=8;endSize=8;curved=1;exitX=0.333;exitY=0;exitDx=0;exitDy=0;exitPerimeter=0;" edge="1" parent="1">
          <mxGeometry width="50" height="50" relative="1" as="geometry">
            <mxPoint x="729.96" y="1070" as="sourcePoint" />
            <mxPoint x="729.9999999999999" y="880" as="targetPoint" />
          </mxGeometry>
        </mxCell>
        <mxCell id="eEOEgGMzsaSdzG_T69ij-13" value="" style="endArrow=none;dashed=1;html=1;rounded=0;fontSize=12;startSize=8;endSize=8;curved=1;" edge="1" parent="1">
          <mxGeometry width="50" height="50" relative="1" as="geometry">
            <mxPoint x="224.57999999999998" y="550" as="sourcePoint" />
            <mxPoint x="224.57999999999998" y="490" as="targetPoint" />
          </mxGeometry>
        </mxCell>
        <mxCell id="eEOEgGMzsaSdzG_T69ij-3" value="" style="endArrow=none;dashed=1;html=1;rounded=0;fontSize=12;startSize=8;endSize=8;curved=1;" edge="1" parent="1">
          <mxGeometry width="50" height="50" relative="1" as="geometry">
            <mxPoint x="64.81" y="280" as="sourcePoint" />
            <mxPoint x="64.81" y="240" as="targetPoint" />
          </mxGeometry>
        </mxCell>
        <mxCell id="eEOEgGMzsaSdzG_T69ij-6" value="Registrar" style="shape=umlActor;verticalLabelPosition=bottom;verticalAlign=top;html=1;fontSize=16;" vertex="1" parent="1">
          <mxGeometry x="55" y="175" width="25" height="35" as="geometry" />
        </mxCell>
        <mxCell id="eEOEgGMzsaSdzG_T69ij-8" value="" style="html=1;points=[];perimeter=orthogonalPerimeter;outlineConnect=0;targetShapes=umlLifeline;portConstraint=eastwest;newEdgeStyle={&quot;edgeStyle&quot;:&quot;elbowEdgeStyle&quot;,&quot;elbow&quot;:&quot;vertical&quot;,&quot;curved&quot;:0,&quot;rounded&quot;:0};fontSize=16;" vertex="1" parent="1">
          <mxGeometry x="60" y="280" width="10" height="190" as="geometry" />
        </mxCell>
        <mxCell id="eEOEgGMzsaSdzG_T69ij-9" value="" style="endArrow=none;dashed=1;html=1;rounded=0;fontSize=12;startSize=8;endSize=8;curved=1;" edge="1" parent="1">
          <mxGeometry width="50" height="50" relative="1" as="geometry">
            <mxPoint x="64.92" y="530" as="sourcePoint" />
            <mxPoint x="64.92" y="470" as="targetPoint" />
          </mxGeometry>
        </mxCell>
        <mxCell id="eEOEgGMzsaSdzG_T69ij-10" value="Admin Portal Room Management" style="html=1;whiteSpace=wrap;fontSize=16;" vertex="1" parent="1">
          <mxGeometry x="165" y="160" width="120" height="60" as="geometry" />
        </mxCell>
        <mxCell id="eEOEgGMzsaSdzG_T69ij-11" value="" style="endArrow=none;dashed=1;html=1;rounded=0;fontSize=12;startSize=8;endSize=8;curved=1;" edge="1" parent="1">
          <mxGeometry width="50" height="50" relative="1" as="geometry">
            <mxPoint x="224.7" y="290" as="sourcePoint" />
            <mxPoint x="224.7" y="230" as="targetPoint" />
          </mxGeometry>
        </mxCell>
        <mxCell id="eEOEgGMzsaSdzG_T69ij-12" value="" style="html=1;points=[];perimeter=orthogonalPerimeter;outlineConnect=0;targetShapes=umlLifeline;portConstraint=eastwest;newEdgeStyle={&quot;edgeStyle&quot;:&quot;elbowEdgeStyle&quot;,&quot;elbow&quot;:&quot;vertical&quot;,&quot;curved&quot;:0,&quot;rounded&quot;:0};fontSize=16;" vertex="1" parent="1">
          <mxGeometry x="220" y="280" width="10" height="220" as="geometry" />
        </mxCell>
        <mxCell id="eEOEgGMzsaSdzG_T69ij-19" value="Go to &quot;Admin Portal Room&lt;br&gt;Management&quot; page" style="html=1;verticalAlign=bottom;endArrow=block;edgeStyle=elbowEdgeStyle;elbow=vertical;curved=0;rounded=0;fontSize=12;startSize=8;endSize=8;" edge="1" parent="1" source="eEOEgGMzsaSdzG_T69ij-8" target="eEOEgGMzsaSdzG_T69ij-12">
          <mxGeometry width="80" relative="1" as="geometry">
            <mxPoint x="35" y="340" as="sourcePoint" />
            <mxPoint x="265" y="340" as="targetPoint" />
            <Array as="points">
              <mxPoint x="100" y="310" />
              <mxPoint x="110" y="300" />
              <mxPoint x="130" y="380" />
              <mxPoint x="55" y="320" />
            </Array>
          </mxGeometry>
        </mxCell>
        <mxCell id="eEOEgGMzsaSdzG_T69ij-21" value="Student Info page" style="html=1;whiteSpace=wrap;fontSize=16;" vertex="1" parent="1">
          <mxGeometry x="340" y="160" width="120" height="60" as="geometry" />
        </mxCell>
        <mxCell id="eEOEgGMzsaSdzG_T69ij-22" value="" style="endArrow=none;dashed=1;html=1;rounded=0;fontSize=12;startSize=8;endSize=8;curved=1;" edge="1" parent="1">
          <mxGeometry width="50" height="50" relative="1" as="geometry">
            <mxPoint x="399.58" y="590" as="sourcePoint" />
            <mxPoint x="399.58" y="530" as="targetPoint" />
          </mxGeometry>
        </mxCell>
        <mxCell id="eEOEgGMzsaSdzG_T69ij-23" value="" style="endArrow=none;dashed=1;html=1;rounded=0;fontSize=12;startSize=8;endSize=8;curved=1;" edge="1" parent="1">
          <mxGeometry width="50" height="50" relative="1" as="geometry">
            <mxPoint x="399.28999999999996" y="290" as="sourcePoint" />
            <mxPoint x="399.28999999999996" y="230" as="targetPoint" />
          </mxGeometry>
        </mxCell>
        <mxCell id="eEOEgGMzsaSdzG_T69ij-24" value="" style="html=1;points=[];perimeter=orthogonalPerimeter;outlineConnect=0;targetShapes=umlLifeline;portConstraint=eastwest;newEdgeStyle={&quot;edgeStyle&quot;:&quot;elbowEdgeStyle&quot;,&quot;elbow&quot;:&quot;vertical&quot;,&quot;curved&quot;:0,&quot;rounded&quot;:0};fontSize=16;" vertex="1" parent="1">
          <mxGeometry x="395" y="280" width="10" height="260" as="geometry" />
        </mxCell>
        <mxCell id="eEOEgGMzsaSdzG_T69ij-25" value="Click &quot;Student Info&quot;" style="html=1;verticalAlign=bottom;endArrow=block;edgeStyle=elbowEdgeStyle;elbow=vertical;curved=0;rounded=0;fontSize=12;startSize=8;endSize=8;" edge="1" parent="1" target="eEOEgGMzsaSdzG_T69ij-24">
          <mxGeometry width="80" relative="1" as="geometry">
            <mxPoint x="230" y="350" as="sourcePoint" />
            <mxPoint x="310" y="350" as="targetPoint" />
          </mxGeometry>
        </mxCell>
        <mxCell id="eEOEgGMzsaSdzG_T69ij-26" value="Payment Detail&lt;br&gt;page" style="html=1;whiteSpace=wrap;fontSize=16;" vertex="1" parent="1">
          <mxGeometry x="510" y="160" width="120" height="60" as="geometry" />
        </mxCell>
        <mxCell id="eEOEgGMzsaSdzG_T69ij-27" value="" style="endArrow=none;dashed=1;html=1;rounded=0;fontSize=12;startSize=8;endSize=8;curved=1;" edge="1" parent="1">
          <mxGeometry width="50" height="50" relative="1" as="geometry">
            <mxPoint x="569.5799999999999" y="640" as="sourcePoint" />
            <mxPoint x="569.5799999999999" y="580" as="targetPoint" />
          </mxGeometry>
        </mxCell>
        <mxCell id="eEOEgGMzsaSdzG_T69ij-28" value="" style="endArrow=none;dashed=1;html=1;rounded=0;fontSize=12;startSize=8;endSize=8;curved=1;" edge="1" parent="1" source="eEOEgGMzsaSdzG_T69ij-29">
          <mxGeometry width="50" height="50" relative="1" as="geometry">
            <mxPoint x="569.29" y="290" as="sourcePoint" />
            <mxPoint x="569.29" y="230" as="targetPoint" />
          </mxGeometry>
        </mxCell>
        <mxCell id="eEOEgGMzsaSdzG_T69ij-29" value="" style="html=1;points=[];perimeter=orthogonalPerimeter;outlineConnect=0;targetShapes=umlLifeline;portConstraint=eastwest;newEdgeStyle={&quot;edgeStyle&quot;:&quot;elbowEdgeStyle&quot;,&quot;elbow&quot;:&quot;vertical&quot;,&quot;curved&quot;:0,&quot;rounded&quot;:0};fontSize=16;" vertex="1" parent="1">
          <mxGeometry x="565" y="340" width="10" height="690" as="geometry" />
        </mxCell>
        <mxCell id="eEOEgGMzsaSdzG_T69ij-30" value="System" style="html=1;whiteSpace=wrap;fontSize=16;" vertex="1" parent="1">
          <mxGeometry x="670" y="160" width="120" height="60" as="geometry" />
        </mxCell>
        <mxCell id="eEOEgGMzsaSdzG_T69ij-31" value="" style="endArrow=none;dashed=1;html=1;rounded=0;fontSize=12;startSize=8;endSize=8;curved=1;" edge="1" parent="1">
          <mxGeometry width="50" height="50" relative="1" as="geometry">
            <mxPoint x="729.57" y="650" as="sourcePoint" />
            <mxPoint x="729.57" y="590" as="targetPoint" />
          </mxGeometry>
        </mxCell>
        <mxCell id="eEOEgGMzsaSdzG_T69ij-32" value="" style="endArrow=none;dashed=1;html=1;rounded=0;fontSize=12;startSize=8;endSize=8;curved=1;" edge="1" parent="1" source="eEOEgGMzsaSdzG_T69ij-33">
          <mxGeometry width="50" height="50" relative="1" as="geometry">
            <mxPoint x="729.29" y="290" as="sourcePoint" />
            <mxPoint x="729.29" y="230" as="targetPoint" />
          </mxGeometry>
        </mxCell>
        <mxCell id="eEOEgGMzsaSdzG_T69ij-33" value="" style="html=1;points=[];perimeter=orthogonalPerimeter;outlineConnect=0;targetShapes=umlLifeline;portConstraint=eastwest;newEdgeStyle={&quot;edgeStyle&quot;:&quot;elbowEdgeStyle&quot;,&quot;elbow&quot;:&quot;vertical&quot;,&quot;curved&quot;:0,&quot;rounded&quot;:0};fontSize=16;" vertex="1" parent="1">
          <mxGeometry x="725" y="350" width="10" height="540" as="geometry" />
        </mxCell>
        <mxCell id="eEOEgGMzsaSdzG_T69ij-34" value="" style="html=1;points=[];perimeter=orthogonalPerimeter;outlineConnect=0;targetShapes=umlLifeline;portConstraint=eastwest;newEdgeStyle={&quot;edgeStyle&quot;:&quot;elbowEdgeStyle&quot;,&quot;elbow&quot;:&quot;vertical&quot;,&quot;curved&quot;:0,&quot;rounded&quot;:0};fontSize=16;" vertex="1" parent="1">
          <mxGeometry x="400" y="400" width="10" height="40" as="geometry" />
        </mxCell>
        <mxCell id="eEOEgGMzsaSdzG_T69ij-35" value="Display list&lt;br&gt;of students&lt;br&gt;info" style="html=1;align=left;spacingLeft=2;endArrow=block;rounded=0;edgeStyle=orthogonalEdgeStyle;curved=0;rounded=0;fontSize=12;startSize=8;endSize=8;" edge="1" target="eEOEgGMzsaSdzG_T69ij-34" parent="1">
          <mxGeometry relative="1" as="geometry">
            <mxPoint x="404" y="370.0000000000001" as="sourcePoint" />
            <Array as="points">
              <mxPoint x="438" y="370" />
              <mxPoint x="438" y="410" />
            </Array>
          </mxGeometry>
        </mxCell>
        <mxCell id="eEOEgGMzsaSdzG_T69ij-37" value="return" style="html=1;verticalAlign=bottom;endArrow=open;dashed=1;endSize=8;edgeStyle=elbowEdgeStyle;elbow=vertical;curved=0;rounded=0;fontSize=12;" edge="1" parent="1" target="eEOEgGMzsaSdzG_T69ij-12">
          <mxGeometry relative="1" as="geometry">
            <mxPoint x="400" y="480" as="sourcePoint" />
            <mxPoint x="315" y="430.09000000000003" as="targetPoint" />
            <Array as="points">
              <mxPoint x="290" y="480" />
              <mxPoint x="290" y="390" />
            </Array>
          </mxGeometry>
        </mxCell>
        <mxCell id="eEOEgGMzsaSdzG_T69ij-45" value="sd UC14" style="shape=umlFrame;whiteSpace=wrap;html=1;pointerEvents=0;fontSize=16;width=70;height=30;" vertex="1" parent="1">
          <mxGeometry x="10" y="100" width="1060" height="1110" as="geometry" />
        </mxCell>
        <mxCell id="eEOEgGMzsaSdzG_T69ij-50" value="" style="html=1;points=[];perimeter=orthogonalPerimeter;outlineConnect=0;targetShapes=umlLifeline;portConstraint=eastwest;newEdgeStyle={&quot;edgeStyle&quot;:&quot;elbowEdgeStyle&quot;,&quot;elbow&quot;:&quot;vertical&quot;,&quot;curved&quot;:0,&quot;rounded&quot;:0};fontSize=16;" vertex="1" parent="1">
          <mxGeometry x="571" y="610.09" width="10" height="40" as="geometry" />
        </mxCell>
        <mxCell id="eEOEgGMzsaSdzG_T69ij-51" value="display payment&lt;br&gt;details" style="html=1;align=left;spacingLeft=2;endArrow=block;rounded=0;edgeStyle=orthogonalEdgeStyle;curved=0;rounded=0;fontSize=12;startSize=8;endSize=8;" edge="1" target="eEOEgGMzsaSdzG_T69ij-50" parent="1">
          <mxGeometry relative="1" as="geometry">
            <mxPoint x="576" y="580.09" as="sourcePoint" />
            <Array as="points">
              <mxPoint x="611" y="580.09" />
              <mxPoint x="611" y="630.09" />
            </Array>
          </mxGeometry>
        </mxCell>
        <mxCell id="eEOEgGMzsaSdzG_T69ij-58" value="Retrieves the payment&amp;nbsp;&lt;br&gt;details" style="html=1;verticalAlign=bottom;endArrow=block;edgeStyle=elbowEdgeStyle;elbow=vertical;curved=0;rounded=0;fontSize=12;startSize=8;endSize=8;" edge="1" parent="1">
          <mxGeometry x="-0.0023" width="80" relative="1" as="geometry">
            <mxPoint x="575" y="500" as="sourcePoint" />
            <mxPoint x="725" y="500.34000000000015" as="targetPoint" />
            <Array as="points">
              <mxPoint x="690" y="500.34000000000003" />
              <mxPoint x="720" y="515.34" />
            </Array>
            <mxPoint as="offset" />
          </mxGeometry>
        </mxCell>
        <mxCell id="eEOEgGMzsaSdzG_T69ij-59" value="Display the payment&lt;br&gt;details" style="html=1;verticalAlign=bottom;endArrow=open;dashed=1;endSize=8;edgeStyle=elbowEdgeStyle;elbow=vertical;curved=0;rounded=0;fontSize=12;" edge="1" parent="1">
          <mxGeometry relative="1" as="geometry">
            <mxPoint x="725" y="545.3400000000001" as="sourcePoint" />
            <mxPoint x="575" y="545.34" as="targetPoint" />
            <Array as="points">
              <mxPoint x="710" y="545.34" />
              <mxPoint x="625" y="535.34" />
              <mxPoint x="625" y="445.34000000000003" />
            </Array>
          </mxGeometry>
        </mxCell>
        <mxCell id="eEOEgGMzsaSdzG_T69ij-60" value="Click &quot;Payment&quot;&lt;br&gt;&amp;nbsp;button" style="html=1;verticalAlign=bottom;endArrow=block;edgeStyle=elbowEdgeStyle;elbow=vertical;curved=0;rounded=0;fontSize=12;startSize=8;endSize=8;" edge="1" parent="1" target="eEOEgGMzsaSdzG_T69ij-29">
          <mxGeometry x="-0.0023" width="80" relative="1" as="geometry">
            <mxPoint x="405" y="470" as="sourcePoint" />
            <mxPoint x="555" y="470.34000000000015" as="targetPoint" />
            <Array as="points">
              <mxPoint x="520" y="470.34000000000003" />
              <mxPoint x="550" y="485.34000000000003" />
            </Array>
            <mxPoint as="offset" />
          </mxGeometry>
        </mxCell>
        <mxCell id="eEOEgGMzsaSdzG_T69ij-61" value="Approve&amp;nbsp;payment&lt;br&gt;information" style="html=1;verticalAlign=bottom;endArrow=block;edgeStyle=elbowEdgeStyle;elbow=vertical;curved=0;rounded=0;fontSize=12;startSize=8;endSize=8;" edge="1" parent="1">
          <mxGeometry x="-0.0023" width="80" relative="1" as="geometry">
            <mxPoint x="575" y="690" as="sourcePoint" />
            <mxPoint x="725" y="690.3400000000001" as="targetPoint" />
            <Array as="points">
              <mxPoint x="690" y="690.34" />
              <mxPoint x="720" y="705.34" />
            </Array>
            <mxPoint as="offset" />
          </mxGeometry>
        </mxCell>
        <mxCell id="eEOEgGMzsaSdzG_T69ij-62" value="" style="html=1;points=[];perimeter=orthogonalPerimeter;outlineConnect=0;targetShapes=umlLifeline;portConstraint=eastwest;newEdgeStyle={&quot;edgeStyle&quot;:&quot;elbowEdgeStyle&quot;,&quot;elbow&quot;:&quot;vertical&quot;,&quot;curved&quot;:0,&quot;rounded&quot;:0};fontSize=16;" vertex="1" parent="1">
          <mxGeometry x="730" y="730" width="10" height="40" as="geometry" />
        </mxCell>
        <mxCell id="eEOEgGMzsaSdzG_T69ij-63" value="Update payment&lt;br&gt;status" style="html=1;align=left;spacingLeft=2;endArrow=block;rounded=0;edgeStyle=orthogonalEdgeStyle;curved=0;rounded=0;fontSize=12;startSize=8;endSize=8;" edge="1" target="eEOEgGMzsaSdzG_T69ij-62" parent="1">
          <mxGeometry relative="1" as="geometry">
            <mxPoint x="735" y="710" as="sourcePoint" />
            <Array as="points">
              <mxPoint x="765" y="740" />
            </Array>
          </mxGeometry>
        </mxCell>
        <mxCell id="eEOEgGMzsaSdzG_T69ij-64" value="" style="html=1;points=[];perimeter=orthogonalPerimeter;outlineConnect=0;targetShapes=umlLifeline;portConstraint=eastwest;newEdgeStyle={&quot;edgeStyle&quot;:&quot;elbowEdgeStyle&quot;,&quot;elbow&quot;:&quot;vertical&quot;,&quot;curved&quot;:0,&quot;rounded&quot;:0};fontSize=16;" vertex="1" parent="1">
          <mxGeometry x="730" y="810" width="10" height="40" as="geometry" />
        </mxCell>
        <mxCell id="eEOEgGMzsaSdzG_T69ij-65" value="Update payment&lt;br&gt;record" style="html=1;align=left;spacingLeft=2;endArrow=block;rounded=0;edgeStyle=orthogonalEdgeStyle;curved=0;rounded=0;fontSize=12;startSize=8;endSize=8;" edge="1" target="eEOEgGMzsaSdzG_T69ij-64" parent="1">
          <mxGeometry relative="1" as="geometry">
            <mxPoint x="735" y="790" as="sourcePoint" />
            <Array as="points">
              <mxPoint x="765" y="820" />
            </Array>
          </mxGeometry>
        </mxCell>
        <mxCell id="eEOEgGMzsaSdzG_T69ij-66" value="Notification page" style="html=1;whiteSpace=wrap;fontSize=16;" vertex="1" parent="1">
          <mxGeometry x="870" y="162.5" width="120" height="60" as="geometry" />
        </mxCell>
        <mxCell id="eEOEgGMzsaSdzG_T69ij-70" value="" style="html=1;points=[];perimeter=orthogonalPerimeter;outlineConnect=0;targetShapes=umlLifeline;portConstraint=eastwest;newEdgeStyle={&quot;edgeStyle&quot;:&quot;elbowEdgeStyle&quot;,&quot;elbow&quot;:&quot;vertical&quot;,&quot;curved&quot;:0,&quot;rounded&quot;:0};fontSize=16;" vertex="1" parent="1">
          <mxGeometry x="925" y="820" width="10" height="280" as="geometry" />
        </mxCell>
        <mxCell id="eEOEgGMzsaSdzG_T69ij-71" value="" style="endArrow=none;dashed=1;html=1;rounded=0;fontSize=12;startSize=8;endSize=8;curved=1;" edge="1" parent="1" source="eEOEgGMzsaSdzG_T69ij-70">
          <mxGeometry width="50" height="50" relative="1" as="geometry">
            <mxPoint x="880" y="860" as="sourcePoint" />
            <mxPoint x="930" y="230" as="targetPoint" />
          </mxGeometry>
        </mxCell>
        <mxCell id="eEOEgGMzsaSdzG_T69ij-73" value="Confirm payment information" style="html=1;verticalAlign=bottom;endArrow=block;edgeStyle=elbowEdgeStyle;elbow=vertical;curved=0;rounded=0;fontSize=12;startSize=8;endSize=8;" edge="1" parent="1" source="eEOEgGMzsaSdzG_T69ij-29" target="eEOEgGMzsaSdzG_T69ij-70">
          <mxGeometry x="-0.0023" width="80" relative="1" as="geometry">
            <mxPoint x="735" y="920" as="sourcePoint" />
            <mxPoint x="885" y="920.3400000000001" as="targetPoint" />
            <Array as="points">
              <mxPoint x="670" y="970" />
              <mxPoint x="790" y="960" />
              <mxPoint x="850" y="920.34" />
              <mxPoint x="880" y="935.34" />
            </Array>
            <mxPoint as="offset" />
          </mxGeometry>
        </mxCell>
        <mxCell id="eEOEgGMzsaSdzG_T69ij-75" value="" style="html=1;points=[];perimeter=orthogonalPerimeter;outlineConnect=0;targetShapes=umlLifeline;portConstraint=eastwest;newEdgeStyle={&quot;edgeStyle&quot;:&quot;elbowEdgeStyle&quot;,&quot;elbow&quot;:&quot;vertical&quot;,&quot;curved&quot;:0,&quot;rounded&quot;:0};fontSize=16;" vertex="1" parent="1">
          <mxGeometry x="930" y="1030" width="10" height="40" as="geometry" />
        </mxCell>
        <mxCell id="eEOEgGMzsaSdzG_T69ij-76" value="Notify&lt;br&gt;Student" style="html=1;align=left;spacingLeft=2;endArrow=block;rounded=0;edgeStyle=orthogonalEdgeStyle;curved=0;rounded=0;fontSize=12;startSize=8;endSize=8;" edge="1" target="eEOEgGMzsaSdzG_T69ij-75" parent="1">
          <mxGeometry relative="1" as="geometry">
            <mxPoint x="935" y="1010" as="sourcePoint" />
            <Array as="points">
              <mxPoint x="965" y="1040" />
            </Array>
          </mxGeometry>
        </mxCell>
      </root>
    </mxGraphModel>
  </diagram>
</mxfile>
